<?xml version="1.0" standalone="no"?>
<!DOCTYPE svg PUBLIC "-//W3C//DTD SVG 20010904//EN"
 "http://www.w3.org/TR/2001/REC-SVG-20010904/DTD/svg10.dtd">
<svg version="1.0" xmlns="http://www.w3.org/2000/svg"
 width="500.000000pt" height="500.000000pt" viewBox="0 0 500.000000 500.000000"
 preserveAspectRatio="xMidYMid meet">
<metadata>
Created by potrace 1.14, written by Peter Selinger 2001-2017
</metadata>
<g transform="translate(0.000000,500.000000) scale(0.100000,-0.100000)"
fill="#000000" stroke="none">
<path d="M1457 3084 c-148 -416 -266 -758 -263 -761 13 -13 28 21 96 212 l73
205 324 -2 325 -3 75 -207 76 -208 143 0 c79 0 144 1 144 3 0 1 -128 342 -284
757 l-284 755 -79 3 -79 3 -267 -757z m273 444 c32 -101 219 -629 266 -752 6
-14 -26 -16 -304 -16 -171 0 -313 3 -315 8 -3 5 304 892 309 892 1 0 21 -60
44 -132z"/>
<path d="M2440 3081 c0 -5 29 -12 63 -15 71 -8 117 -31 144 -73 16 -24 18 -59
21 -350 l3 -323 140 0 139 0 0 318 c0 282 2 321 18 352 21 44 69 68 150 76
146 16 37 24 -308 24 -207 0 -370 -4 -370 -9z"/>
<path d="M3450 3075 c0 -12 14 -15 63 -15 124 0 173 -28 164 -93 -8 -57 -49
-111 -302 -392 l-224 -250 50 -3 c27 -2 72 -2 99 0 l51 3 -37 52 -36 52 214
238 c303 335 352 377 457 390 33 4 51 10 51 19 0 12 -50 14 -275 14 -238 0
-275 -2 -275 -15z"/>
<path d="M1157 2228 c-2 -7 -1 -33 3 -58 l7 -45 2 58 c1 56 -2 69 -12 45z"/>
<path d="M2645 2181 c-3 -5 -1 -12 5 -16 5 -3 10 1 10 9 0 18 -6 21 -15 7z"/>
<path d="M2608 2163 c7 -3 16 -2 19 1 4 3 -2 6 -13 5 -11 0 -14 -3 -6 -6z"/>
<path d="M3444 2148 c-4 -6 -3 -8 4 -4 5 3 13 0 15 -6 3 -8 6 -6 6 5 1 19 -14
23 -25 5z"/>
<path d="M2094 2139 c-4 -7 -3 -9 4 -5 5 3 13 0 15 -6 4 -9 6 -10 6 -1 1 17
-16 25 -25 12z"/>
<path d="M2689 2123 c-13 -16 -12 -17 4 -4 16 13 21 21 13 21 -2 0 -10 -8 -17
-17z"/>
<path d="M2645 2090 c-4 -6 -10 -8 -15 -5 -4 3 -10 -2 -14 -10 -7 -20 1 -19
31 5 14 11 21 20 15 20 -6 0 -14 -5 -17 -10z"/>
<path d="M3380 2076 c0 -2 16 -6 35 -8 19 -2 35 0 35 4 0 4 -16 8 -35 8 -19 0
-35 -2 -35 -4z"/>
<path d="M1073 2055 c6 -7 15 -11 20 -8 13 8 7 19 -13 20 -16 1 -17 -1 -7 -12z"/>
<path d="M1760 2051 c0 -14 -8 -33 -17 -44 -10 -11 -12 -17 -5 -13 7 5 12 1
12 -10 0 -13 3 -14 15 -4 8 6 20 8 27 4 7 -4 10 -4 6 1 -4 4 -3 14 3 22 14 16
-2 18 -19 1 -16 -16 -26 -4 -14 19 7 12 7 25 1 34 -7 11 -9 8 -9 -10z"/>
<path d="M1250 2038 c0 -10 2 -18 5 -18 2 0 9 8 14 18 8 14 6 19 -5 19 -7 0
-14 -9 -14 -19z"/>
<path d="M1952 2047 c-8 -10 -5 -16 11 -27 20 -12 21 -12 9 3 -8 9 -11 21 -7
27 9 14 0 13 -13 -3z"/>
<path d="M2072 2052 c-7 -5 -15 -26 -18 -48 -4 -28 -3 -35 5 -24 5 8 7 18 4
22 -2 5 3 20 11 33 18 27 18 29 -2 17z"/>
<path d="M2977 2042 c-15 -16 -15 -18 1 -18 10 0 18 8 18 18 0 10 -1 18 -2 18
0 0 -8 -8 -17 -18z"/>
<path d="M3558 2054 c-5 -4 -8 -16 -8 -28 0 -14 3 -17 11 -9 6 6 9 19 7 28 -1
9 -6 13 -10 9z"/>
<path d="M3087 2024 c-13 -18 -14 -22 -3 -18 8 3 17 13 20 21 10 25 3 23 -17
-3z"/>
<path d="M1151 2028 c9 -7 19 -20 23 -28 3 -8 4 -4 3 10 -1 16 -9 26 -22 28
-18 3 -18 3 -4 -10z"/>
<path d="M2715 2020 c10 -11 20 -20 23 -20 3 0 -3 9 -13 20 -10 11 -20 20 -23
20 -3 0 3 -9 13 -20z"/>
<path d="M3250 2017 c-14 -12 -23 -21 -21 -20 2 2 10 -5 18 -15 12 -16 13 -16
7 1 -4 10 1 26 11 37 24 26 16 25 -15 -3z"/>
<path d="M4018 2029 c-18 -10 -24 -44 -10 -52 9 -7 53 29 45 36 -3 4 -14 -4
-24 -16 -12 -15 -18 -17 -19 -8 0 8 7 23 17 33 18 20 16 22 -9 7z"/>
<path d="M3580 2026 c0 -2 7 -6 15 -10 8 -3 15 -1 15 4 0 6 -7 10 -15 10 -8 0
-15 -2 -15 -4z"/>
<path d="M1049 2003 c-13 -16 -12 -17 4 -4 9 7 17 15 17 17 0 8 -8 3 -21 -13z"/>
<path d="M1273 2008 c-28 -14 -29 -24 -3 -24 10 0 17 2 15 5 -3 2 0 10 6 18
13 15 12 15 -18 1z"/>
<path d="M1405 2010 c-3 -5 -2 -10 4 -10 5 0 13 5 16 10 3 6 2 10 -4 10 -5 0
-13 -4 -16 -10z"/>
<path d="M1433 1994 c-12 -13 -18 -24 -13 -24 4 0 13 7 20 15 10 12 16 13 29
3 14 -12 15 -11 1 7 -8 11 -15 21 -15 22 0 1 -10 -9 -22 -23z"/>
<path d="M1581 2001 c-1 -20 1 -21 14 -11 16 14 21 25 6 16 -5 -4 -12 0 -14 6
-3 7 -6 2 -6 -11z"/>
<path d="M1621 2017 c2 -1 15 -11 29 -22 l25 -20 -19 23 c-11 12 -24 22 -29
22 -6 0 -8 -1 -6 -3z"/>
<path d="M2205 2010 c-3 -5 -2 -10 4 -10 5 0 13 5 16 10 3 6 2 10 -4 10 -5 0
-13 -4 -16 -10z"/>
<path d="M2233 1994 c-12 -13 -18 -24 -13 -24 4 0 13 7 20 15 10 12 16 13 29
3 14 -12 15 -11 1 7 -8 11 -15 21 -15 22 0 1 -10 -9 -22 -23z"/>
<path d="M3276 2004 c-3 -9 -2 -12 5 -9 5 4 17 1 26 -7 15 -12 15 -11 2 10
-16 26 -25 28 -33 6z"/>
<path d="M3720 2006 c0 -8 4 -17 9 -20 5 -4 7 3 4 14 -6 23 -13 26 -13 6z"/>
<path d="M3834 2008 c-4 -6 -3 -8 4 -4 6 3 13 -2 15 -11 4 -14 5 -13 6 5 1 23
-13 30 -25 10z"/>
<path d="M3899 2006 c-1 -6 -1 -15 0 -20 1 -4 -4 -14 -10 -22 -9 -12 -9 -13 4
-9 8 4 17 15 20 26 3 10 16 23 29 28 21 8 20 9 -9 9 -18 -1 -34 -6 -34 -12z"/>
<path d="M3010 2001 c0 -9 -8 -12 -26 -8 -16 3 -22 1 -16 -5 5 -5 21 -8 36 -6
20 2 23 6 16 18 -8 12 -10 12 -10 1z"/>
<path d="M3100 2000 c-8 -5 -12 -12 -9 -15 4 -3 12 1 19 10 14 17 11 19 -10 5z"/>
<path d="M3140 2006 c0 -2 8 -10 18 -17 15 -13 16 -12 3 4 -13 16 -21 21 -21
13z"/>
<path d="M1955 1989 c-16 -6 -14 -8 13 -8 33 -1 41 4 20 12 -7 2 -22 1 -33 -4z"/>
<path d="M3758 1973 c7 -3 16 -2 19 1 4 3 -2 6 -13 5 -11 0 -14 -3 -6 -6z"/>
<path d="M2668 1657 c-2 -146 -6 -177 -21 -200 -27 -42 -72 -64 -143 -72 -35
-4 -64 -11 -64 -16 0 -5 151 -9 370 -9 345 0 454 8 308 24 -78 8 -126 32 -150
76 -15 30 -18 59 -18 202 l0 168 -139 0 -139 0 -4 -173z"/>
<path d="M3360 1824 c0 -16 210 -313 251 -354 76 -76 198 -110 396 -110 92 0
106 12 39 35 -63 22 -126 94 -286 328 l-73 107 -164 0 c-89 0 -163 -3 -163 -6z"/>
</g>
</svg>
